<svg width="38" height="37" viewBox="0 0 38 37" fill="none" xmlns="http://www.w3.org/2000/svg">
<path d="M34.8333 15.4167C35.6732 15.4167 36.4786 15.0918 37.0725 14.5136C37.6664 13.9353 38 13.1511 38 12.3333V3.08333C38 2.26558 37.6664 1.48132 37.0725 0.903087C36.4786 0.32485 35.6732 0 34.8333 0H25.3333C24.4935 0 23.688 0.32485 23.0942 0.903087C22.5003 1.48132 22.1667 2.26558 22.1667 3.08333V12.3333C22.1667 13.1511 22.5003 13.9353 23.0942 14.5136C23.688 15.0918 24.4935 15.4167 25.3333 15.4167H28.5V21.7375C26.9786 22.0396 25.582 22.7707 24.4841 23.8397C23.3861 24.9088 22.6353 26.2686 22.325 27.75H15.8333V24.6667C15.8333 23.8489 15.4997 23.0647 14.9058 22.4864C14.312 21.9082 13.5065 21.5833 12.6667 21.5833H9.50001V15.2625C11.4222 14.8805 13.1303 13.8171 14.2931 12.2785C15.4558 10.7399 15.9904 8.83572 15.7933 6.93515C15.5961 5.03458 14.6811 3.273 13.2258 1.99193C11.7705 0.710864 9.87855 0.00157317 7.91668 0.00157317C5.95481 0.00157317 4.06282 0.710864 2.60752 1.99193C1.15223 3.273 0.237292 5.03458 0.0401066 6.93515C-0.157079 8.83572 0.37753 10.7399 1.54029 12.2785C2.70305 13.8171 4.41112 14.8805 6.33335 15.2625V21.5833H3.16668C2.32683 21.5833 1.52138 21.9082 0.927513 22.4864C0.333648 23.0647 1.80552e-05 23.8489 1.80552e-05 24.6667V33.9167C1.80552e-05 34.7344 0.333648 35.5187 0.927513 36.0969C1.52138 36.6751 2.32683 37 3.16668 37H12.6667C13.5065 37 14.312 36.6751 14.9058 36.0969C15.4997 35.5187 15.8333 34.7344 15.8333 33.9167V30.8333H22.325C22.6114 32.1976 23.2719 33.4608 24.2365 34.4888C25.2011 35.5169 26.4336 36.2713 27.8032 36.672C29.1728 37.0727 30.6283 37.1047 32.015 36.7645C33.4018 36.4244 34.668 35.7249 35.6792 34.7403C36.6904 33.7557 37.4089 32.5228 37.7582 31.1725C38.1075 29.8222 38.0746 28.4051 37.6631 27.0715C37.2516 25.738 36.4768 24.5379 35.421 23.5987C34.3651 22.6595 33.0678 22.0163 31.6667 21.7375V15.4167H34.8333ZM3.16668 7.70833C3.16668 6.79359 3.44527 5.8994 3.9672 5.13882C4.48914 4.37824 5.23099 3.78545 6.09894 3.43539C6.96688 3.08534 7.92195 2.99375 8.84336 3.1722C9.76477 3.35066 10.6111 3.79115 11.2754 4.43796C11.9397 5.08478 12.3921 5.90888 12.5754 6.80604C12.7587 7.7032 12.6646 8.63314 12.3051 9.47824C11.9456 10.3234 11.3368 11.0457 10.5556 11.5539C9.77451 12.0621 8.85614 12.3333 7.91668 12.3333C6.6569 12.3333 5.44872 11.8461 4.55793 10.9787C3.66713 10.1113 3.16668 8.93496 3.16668 7.70833ZM12.6667 33.9167H3.16668V24.6667H12.6667V33.9167ZM34.8333 29.2917C34.8333 30.2064 34.5548 31.1006 34.0328 31.8612C33.5109 32.6218 32.769 33.2146 31.9011 33.5646C31.0331 33.9147 30.0781 34.0063 29.1567 33.8278C28.2352 33.6493 27.3889 33.2089 26.7246 32.562C26.0603 31.9152 25.6079 31.0911 25.4246 30.194C25.2413 29.2968 25.3354 28.3669 25.6949 27.5218C26.0544 26.6766 26.6632 25.9543 27.4444 25.4461C28.2255 24.9379 29.1439 24.6667 30.0833 24.6667C31.3431 24.6667 32.5513 25.1539 33.4421 26.0213C34.3329 26.8887 34.8333 28.065 34.8333 29.2917ZM25.3333 3.08333H34.8333V12.3333H25.3333V3.08333Z" fill="white"/>
</svg>
