<?xml version="1.0" standalone="no"?>
<!DOCTYPE svg PUBLIC "-//W3C//DTD SVG 20010904//EN"
 "http://www.w3.org/TR/2001/REC-SVG-20010904/DTD/svg10.dtd">
<svg version="1.0" xmlns="http://www.w3.org/2000/svg"
 width="664.000000pt" height="657.000000pt" viewBox="0 0 664.000000 657.000000"
 preserveAspectRatio="xMidYMid meet">

  <g transform="translate(0.000000,657.000000) scale(0.100000,-0.100000)"
    fill="#fff" stroke="none">
    <path d="M3040 6549 c-806 -69 -1571 -432 -2123 -1009 -726 -757 -1043 -1796
    -862 -2825 192 -1088 925 -2006 1952 -2444 295 -126 603 -207 934 -247 196
    -24 562 -24 758 0 912 110 1715 563 2264 1278 848 1105 897 2627 121 3788
    -617 925 -1668 1478 -2787 1469 -89 -1 -205 -5 -257 -10z m594 -384 c1141
    -134 2084 -899 2434 -1976 230 -708 175 -1479 -154 -2144 -139 -283 -294 -502
    -514 -729 -162 -167 -308 -289 -490 -408 -1022 -673 -2367 -631 -3340 103
    -362 273 -648 615 -848 1015 -156 313 -251 637 -288 992 -20 179 -14 523 11
    682 100 645 370 1185 815 1630 464 465 1064 755 1720 834 159 19 495 20 654 1z"/>
    <path d="M3207 5460 c-282 -25 -527 -105 -721 -234 -266 -178 -465 -446 -535
    -723 -20 -80 -45 -232 -39 -238 2 -2 554 -71 702 -88 15 -2 23 13 42 82 74
    256 198 424 384 520 125 66 209 84 380 84 164 0 251 -18 368 -75 82 -40 194
    -144 242 -224 64 -107 85 -245 55 -372 -34 -145 -100 -222 -405 -475 -365
    -303 -529 -490 -598 -679 -53 -147 -63 -214 -69 -450 l-5 -218 354 0 355 0 7
    137 c16 335 38 368 506 768 155 133 368 348 440 445 151 203 218 440 191 670
    -28 229 -100 392 -258 581 -181 216 -430 366 -740 444 -162 41 -469 62 -656
    45z"/>
    <path d="M3010 1695 l0 -395 393 2 392 3 3 393 2 392 -395 0 -395 0 0 -395z"/>
  </g>
</svg>
